<?xml version="1.0" encoding="UTF-8"?>
<svg xmlns="http://www.w3.org/2000/svg" width="489" height="69">
   <defs>
      <style type="text/css">
    @namespace "http://www.w3.org/2000/svg";
    .line                 {fill: none; stroke: #332900; stroke-width: 1;}
    .bold-line            {stroke: #141000; shape-rendering: crispEdges; stroke-width: 2;}
    .thin-line            {stroke: #1F1800; shape-rendering: crispEdges}
    .filled               {fill: #332900; stroke: none;}
    text.terminal         {font-family: Verdana, Sans-serif;
                            font-size: 12px;
                            fill: #141000;
                            font-weight: bold;
                          }
    text.nonterminal      {font-family: Verdana, Sans-serif;
                            font-size: 12px;
                            fill: #1A1400;
                            font-weight: normal;
                          }
    text.regexp           {font-family: Verdana, Sans-serif;
                            font-size: 12px;
                            fill: #1F1800;
                            font-weight: normal;
                          }
    rect, circle, polygon {fill: #332900; stroke: #332900;}
    rect.terminal         {fill: #FFDB4D; stroke: #332900; stroke-width: 1;}
    rect.nonterminal      {fill: #FFEC9E; stroke: #332900; stroke-width: 1;}
    rect.text             {fill: none; stroke: none;}
    polygon.regexp        {fill: #FFF4C7; stroke: #332900; stroke-width: 1;}
  </style>
   </defs>
   <polygon points="9 17 1 13 1 21"/>
   <polygon points="17 17 9 13 9 21"/>
   <a xmlns:xlink="http://www.w3.org/1999/xlink"
      xlink:href="#path-ref"
      xlink:title="path-ref">
      <rect x="31" y="3" width="72" height="32"/>
      <rect x="29" y="1" width="72" height="32" class="nonterminal"/>
      <text class="nonterminal" x="39" y="21">path-ref</text>
   </a>
   <a xmlns:xlink="http://www.w3.org/1999/xlink"
      xlink:href="#NO_WS"
      xlink:title="NO_WS">
      <rect x="123" y="3" width="68" height="32"/>
      <rect x="121" y="1" width="68" height="32" class="nonterminal"/>
      <text class="nonterminal" x="131" y="21">NO_WS</text>
   </a>
   <rect x="211" y="3" width="26" height="32" rx="10"/>
   <rect x="209"
         y="1"
         width="26"
         height="32"
         class="terminal"
         rx="10"/>
   <text class="terminal" x="219" y="21">(</text>
   <a xmlns:xlink="http://www.w3.org/1999/xlink"
      xlink:href="#call-args"
      xlink:title="call-args">
      <rect x="257" y="3" width="74" height="32"/>
      <rect x="255" y="1" width="74" height="32" class="nonterminal"/>
      <text class="nonterminal" x="265" y="21">call-args</text>
   </a>
   <rect x="371" y="35" width="24" height="32" rx="10"/>
   <rect x="369"
         y="33"
         width="24"
         height="32"
         class="terminal"
         rx="10"/>
   <text class="terminal" x="379" y="53">,</text>
   <rect x="435" y="3" width="26" height="32" rx="10"/>
   <rect x="433"
         y="1"
         width="26"
         height="32"
         class="terminal"
         rx="10"/>
   <text class="terminal" x="443" y="21">)</text>
   <path class="line"
         d="m17 17 h2 m0 0 h10 m72 0 h10 m0 0 h10 m68 0 h10 m0 0 h10 m26 0 h10 m0 0 h10 m74 0 h10 m20 0 h10 m0 0 h34 m-64 0 h20 m44 0 h20 m-84 0 q10 0 10 10 m64 0 q0 -10 10 -10 m-74 10 v12 m64 0 v-12 m-64 12 q0 10 10 10 m44 0 q10 0 10 -10 m-54 10 h10 m24 0 h10 m20 -32 h10 m26 0 h10 m3 0 h-3"/>
   <polygon points="479 17 487 13 487 21"/>
   <polygon points="479 17 471 13 471 21"/>
</svg>
