<?xml version="1.0" encoding="UTF-8"?>
<svg xmlns="http://www.w3.org/2000/svg" width="359" height="37">
   <defs>
      <style type="text/css">
    @namespace "http://www.w3.org/2000/svg";
    .line                 {fill: none; stroke: #332900; stroke-width: 1;}
    .bold-line            {stroke: #141000; shape-rendering: crispEdges; stroke-width: 2;}
    .thin-line            {stroke: #1F1800; shape-rendering: crispEdges}
    .filled               {fill: #332900; stroke: none;}
    text.terminal         {font-family: Verdana, Sans-serif;
                            font-size: 12px;
                            fill: #141000;
                            font-weight: bold;
                          }
    text.nonterminal      {font-family: Verdana, Sans-serif;
                            font-size: 12px;
                            fill: #1A1400;
                            font-weight: normal;
                          }
    text.regexp           {font-family: Verdana, Sans-serif;
                            font-size: 12px;
                            fill: #1F1800;
                            font-weight: normal;
                          }
    rect, circle, polygon {fill: #332900; stroke: #332900;}
    rect.terminal         {fill: #FFDB4D; stroke: #332900; stroke-width: 1;}
    rect.nonterminal      {fill: #FFEC9E; stroke: #332900; stroke-width: 1;}
    rect.text             {fill: none; stroke: none;}
    polygon.regexp        {fill: #FFF4C7; stroke: #332900; stroke-width: 1;}
  </style>
   </defs>
   <polygon points="9 17 1 13 1 21"/>
   <polygon points="17 17 9 13 9 21"/>
   <a xmlns:xlink="http://www.w3.org/1999/xlink"
      xlink:href="#ref"
      xlink:title="ref">
      <rect x="31" y="3" width="36" height="32"/>
      <rect x="29" y="1" width="36" height="32" class="nonterminal"/>
      <text class="nonterminal" x="39" y="21">ref</text>
   </a>
   <a xmlns:xlink="http://www.w3.org/1999/xlink"
      xlink:href="#NO_WS"
      xlink:title="NO_WS">
      <rect x="87" y="3" width="68" height="32"/>
      <rect x="85" y="1" width="68" height="32" class="nonterminal"/>
      <text class="nonterminal" x="95" y="21">NO_WS</text>
   </a>
   <rect x="175" y="3" width="26" height="32" rx="10"/>
   <rect x="173"
         y="1"
         width="26"
         height="32"
         class="terminal"
         rx="10"/>
   <text class="terminal" x="183" y="21">[</text>
   <a xmlns:xlink="http://www.w3.org/1999/xlink"
      xlink:href="#in-expr"
      xlink:title="in-expr">
      <rect x="221" y="3" width="64" height="32"/>
      <rect x="219" y="1" width="64" height="32" class="nonterminal"/>
      <text class="nonterminal" x="229" y="21">in-expr</text>
   </a>
   <rect x="305" y="3" width="26" height="32" rx="10"/>
   <rect x="303"
         y="1"
         width="26"
         height="32"
         class="terminal"
         rx="10"/>
   <text class="terminal" x="313" y="21">]</text>
   <path class="line"
         d="m17 17 h2 m0 0 h10 m36 0 h10 m0 0 h10 m68 0 h10 m0 0 h10 m26 0 h10 m0 0 h10 m64 0 h10 m0 0 h10 m26 0 h10 m3 0 h-3"/>
   <polygon points="349 17 357 13 357 21"/>
   <polygon points="349 17 341 13 341 21"/>
</svg>
